<mxfile host="app.diagrams.net" agent="Mozilla/5.0 (Windows NT 10.0; Win64; x64) AppleWebKit/537.36 (KHTML, like Gecko) Chrome/126.0.0.0 Safari/537.36" version="24.7.4">
  <diagram name="第 1 页" id="Cd-tDsXfpyj48msueYsU">
    <mxGraphModel dx="1422" dy="698" grid="1" gridSize="10" guides="1" tooltips="1" connect="1" arrows="1" fold="1" page="1" pageScale="1" pageWidth="827" pageHeight="1169" math="0" shadow="0">
      <root>
        <mxCell id="0" />
        <mxCell id="1" parent="0" />
        <mxCell id="6K_0PYBgkofawIDCo4yg-1" value="" style="rounded=0;whiteSpace=wrap;html=1;" vertex="1" parent="1">
          <mxGeometry x="80" y="160" width="1050" height="290" as="geometry" />
        </mxCell>
        <mxCell id="6K_0PYBgkofawIDCo4yg-2" value="读取nginx配置，映射到location block" style="rounded=0;whiteSpace=wrap;html=1;" vertex="1" parent="1">
          <mxGeometry x="260" y="220" width="250" height="60" as="geometry" />
        </mxCell>
        <mxCell id="6K_0PYBgkofawIDCo4yg-8" style="edgeStyle=orthogonalEdgeStyle;rounded=0;orthogonalLoop=1;jettySize=auto;html=1;entryX=0;entryY=0.5;entryDx=0;entryDy=0;" edge="1" parent="1" source="6K_0PYBgkofawIDCo4yg-7" target="6K_0PYBgkofawIDCo4yg-2">
          <mxGeometry relative="1" as="geometry" />
        </mxCell>
        <mxCell id="6K_0PYBgkofawIDCo4yg-7" value="" style="shape=actor;whiteSpace=wrap;html=1;" vertex="1" parent="1">
          <mxGeometry x="110" y="220" width="40" height="60" as="geometry" />
        </mxCell>
        <mxCell id="6K_0PYBgkofawIDCo4yg-11" style="edgeStyle=orthogonalEdgeStyle;rounded=0;orthogonalLoop=1;jettySize=auto;html=1;exitX=1;exitY=0.5;exitDx=0;exitDy=0;entryX=0;entryY=0.5;entryDx=0;entryDy=0;" edge="1" parent="1" source="6K_0PYBgkofawIDCo4yg-9" target="6K_0PYBgkofawIDCo4yg-10">
          <mxGeometry relative="1" as="geometry" />
        </mxCell>
        <mxCell id="6K_0PYBgkofawIDCo4yg-9" value="https" style="rounded=0;whiteSpace=wrap;html=1;" vertex="1" parent="1">
          <mxGeometry x="140" y="380" width="70" height="60" as="geometry" />
        </mxCell>
        <mxCell id="6K_0PYBgkofawIDCo4yg-16" value="" style="edgeStyle=orthogonalEdgeStyle;rounded=0;orthogonalLoop=1;jettySize=auto;html=1;" edge="1" parent="1" source="6K_0PYBgkofawIDCo4yg-10" target="6K_0PYBgkofawIDCo4yg-15">
          <mxGeometry relative="1" as="geometry" />
        </mxCell>
        <mxCell id="6K_0PYBgkofawIDCo4yg-10" value="https" style="rounded=0;whiteSpace=wrap;html=1;" vertex="1" parent="1">
          <mxGeometry x="280" y="380" width="70" height="60" as="geometry" />
        </mxCell>
        <mxCell id="6K_0PYBgkofawIDCo4yg-12" value="https回源" style="text;strokeColor=none;align=center;fillColor=none;html=1;verticalAlign=middle;whiteSpace=wrap;rounded=0;" vertex="1" parent="1">
          <mxGeometry x="210" y="380" width="60" height="30" as="geometry" />
        </mxCell>
        <mxCell id="6K_0PYBgkofawIDCo4yg-13" value="cdn" style="text;strokeColor=none;align=center;fillColor=none;html=1;verticalAlign=middle;whiteSpace=wrap;rounded=0;" vertex="1" parent="1">
          <mxGeometry x="145" y="350" width="60" height="30" as="geometry" />
        </mxCell>
        <mxCell id="6K_0PYBgkofawIDCo4yg-14" value="源站" style="text;strokeColor=none;align=center;fillColor=none;html=1;verticalAlign=middle;whiteSpace=wrap;rounded=0;" vertex="1" parent="1">
          <mxGeometry x="285" y="350" width="60" height="30" as="geometry" />
        </mxCell>
        <mxCell id="6K_0PYBgkofawIDCo4yg-15" value="" style="whiteSpace=wrap;html=1;rounded=0;" vertex="1" parent="1">
          <mxGeometry x="405" y="380" width="120" height="60" as="geometry" />
        </mxCell>
      </root>
    </mxGraphModel>
  </diagram>
</mxfile>
